<?xml version="1.0" encoding="utf-8"?>
<!-- Generator: Adobe Illustrator 21.0.1, SVG Export Plug-In . SVG Version: 6.00 Build 0)  -->
<svg version="1.1" id="Layer_1" xmlns="http://www.w3.org/2000/svg" xmlns:xlink="http://www.w3.org/1999/xlink" x="0px" y="0px"
	 viewBox="0 0 1366 768" style="enable-background:new 0 0 1366 768;" xml:space="preserve">
<style type="text/css">
	.st0{fill:#FFFFFF;}
</style>
<g>
	<path class="st0" d="M853,308.8c0-3.8-1.5-7.5-4.2-10.2L693,142.8c-1.7-1.7-4.5-0.2-4.2,2.1l26,170.6c0.5,3.4,2.1,6.5,4.5,8.9
		L848.9,454c1.5,1.5,4.2,0.4,4.2-1.7L853,308.8z"/>
	<path class="st0" d="M651.7,315.5l26-170.6c0.4-2.3-2.5-3.8-4.2-2.1L517.7,298.5c-2.7,2.7-4.2,6.4-4.2,10.2l-0.1,143.4
		c0,2.2,2.6,3.3,4.2,1.7l129.5-129.5C649.6,322,651.1,318.9,651.7,315.5z"/>
	<path class="st0" d="M683.2,469.7l-30-30l-51.1-51.1c-1.2-1.2-3-1.2-4.2,0l-73.1,73.9c-1.1,1.2-1.1,3,0,4.2l7.9,7.9l150.3,150.3
		c1.9,1.9,5.1,0.5,5-2.1l-0.1-141.4C688.1,477,686.3,472.8,683.2,469.7z"/>
</g>
</svg>
